<?xml version="1.0" encoding="UTF-8"?>
<svg xmlns="http://www.w3.org/2000/svg" xmlns:xlink="http://www.w3.org/1999/xlink" width="32px" height="32px" viewBox="0 0 32 32" version="1.1">
<g id="surface1">
<path style=" stroke:none;fill-rule:nonzero;fill:rgb(74.901962%,44.705883%,5.098039%);fill-opacity:1;" d="M 9 13.5 C 9 12.121094 7.878906 11 6.5 11 C 5.121094 11 4 12.121094 4 13.5 C 4 14.878906 5.121094 16 6.5 16 C 7.878906 16 9 14.878906 9 13.5 Z M 9 13.5 "/>
<path style=" stroke:none;fill-rule:nonzero;fill:rgb(74.901962%,44.705883%,5.098039%);fill-opacity:1;" d="M 10 8 C 10 5.238281 7.761719 3 5 3 C 2.238281 3 0 5.238281 0 8 C 0 10.761719 2.238281 13 5 13 C 7.761719 13 10 10.761719 10 8 Z M 10 8 "/>
<path style=" stroke:none;fill-rule:nonzero;fill:rgb(100%,100%,100%);fill-opacity:1;" d="M 7 8 C 7 6.894531 6.105469 6 5 6 C 3.894531 6 3 6.894531 3 8 C 3 9.105469 3.894531 10 5 10 C 6.105469 10 7 9.105469 7 8 Z M 7 8 "/>
<path style=" stroke:none;fill-rule:nonzero;fill:rgb(100%,59.607846%,6.666667%);fill-opacity:1;" d="M 28 13.5 C 28 12.121094 26.878906 11 25.5 11 C 24.121094 11 23 12.121094 23 13.5 C 23 14.878906 24.121094 16 25.5 16 C 26.878906 16 28 14.878906 28 13.5 Z M 28 13.5 "/>
<path style=" stroke:none;fill-rule:nonzero;fill:rgb(100%,59.607846%,6.666667%);fill-opacity:1;" d="M 32 8 C 32 5.238281 29.761719 3 27 3 C 24.238281 3 22 5.238281 22 8 C 22 10.761719 24.238281 13 27 13 C 29.761719 13 32 10.761719 32 8 Z M 32 8 "/>
<path style=" stroke:none;fill-rule:nonzero;fill:rgb(100%,100%,100%);fill-opacity:1;" d="M 29 8 C 29 6.894531 28.105469 6 27 6 C 25.894531 6 25 6.894531 25 8 C 25 9.105469 25.894531 10 27 10 C 28.105469 10 29 9.105469 29 8 Z M 29 8 "/>
<path style=" stroke:none;fill-rule:nonzero;fill:rgb(100%,85.490197%,26.666668%);fill-opacity:1;" d="M 5 3 L 5 5 C 5 11.074219 9.925781 16 16 16 C 22.074219 16 27 11.074219 27 5 L 27 3 Z M 5 3 "/>
<path style=" stroke:none;fill-rule:nonzero;fill:rgb(100%,59.607846%,6.666667%);fill-opacity:1;" d="M 16 3 L 5 3 L 5 5 C 5 11.074219 9.925781 16 16 16 Z M 16 3 "/>
<path style=" stroke:none;fill-rule:nonzero;fill:rgb(100%,85.490197%,26.666668%);fill-opacity:1;" d="M 16 21 L 19 21 L 22 27 L 16 27 Z M 16 21 "/>
<path style=" stroke:none;fill-rule:nonzero;fill:rgb(100%,85.490197%,26.666668%);fill-opacity:1;" d="M 16 10 L 19 10 L 19 22 L 16 22 Z M 16 10 "/>
<path style=" stroke:none;fill-rule:nonzero;fill:rgb(100%,59.607846%,6.666667%);fill-opacity:1;" d="M 13 10 L 16 10 L 16 22 L 13 22 Z M 13 10 "/>
<path style=" stroke:none;fill-rule:nonzero;fill:rgb(100%,59.607846%,6.666667%);fill-opacity:1;" d="M 13 21 L 16 21 L 16 27 L 10 27 Z M 13 21 "/>
<path style=" stroke:none;fill-rule:nonzero;fill:rgb(74.901962%,44.705883%,5.098039%);fill-opacity:1;" d="M 9 26 L 16 26 L 16 32 L 9 32 Z M 9 26 "/>
<path style=" stroke:none;fill-rule:nonzero;fill:rgb(100%,59.607846%,6.666667%);fill-opacity:1;" d="M 16 26 L 23 26 L 23 32 L 16 32 Z M 16 26 "/>
<path style=" stroke:none;fill-rule:nonzero;fill:rgb(100%,59.607846%,6.666667%);fill-opacity:1;" d="M 12 29 L 16 29 L 16 32 L 12 32 Z M 12 29 "/>
<path style=" stroke:none;fill-rule:nonzero;fill:rgb(100%,85.490197%,26.666668%);fill-opacity:1;" d="M 16 29 L 20 29 L 20 32 L 16 32 Z M 16 29 "/>
<path style=" stroke:none;fill-rule:nonzero;fill:rgb(74.901962%,44.705883%,5.098039%);fill-opacity:1;" d="M 5 0 L 16 0 L 16 3 L 5 3 Z M 5 0 "/>
<path style=" stroke:none;fill-rule:nonzero;fill:rgb(100%,59.607846%,6.666667%);fill-opacity:1;" d="M 16 0 L 27 0 L 27 3 L 16 3 Z M 16 0 "/>
</g>
</svg>
