<?xml version="1.0" encoding="UTF-8"?>
<svg xmlns="http://www.w3.org/2000/svg" xmlns:xlink="http://www.w3.org/1999/xlink" width="32px" height="32px" viewBox="0 0 32 32" version="1.1">
<g id="surface1">
<path style=" stroke:none;fill-rule:nonzero;fill:rgb(10.980392%,60.392159%,83.92157%);fill-opacity:1;" d="M 25.601562 1.601562 C 22.660156 1.601562 20.265625 3.992188 20.265625 6.933594 C 20.265625 9.875 22.660156 12.265625 25.601562 12.265625 C 28.539062 12.265625 30.933594 9.875 30.933594 6.933594 C 30.933594 3.992188 28.539062 1.601562 25.601562 1.601562 Z M 25.601562 1.601562 "/>
<path style=" stroke:none;fill-rule:nonzero;fill:rgb(10.980392%,60.392159%,83.92157%);fill-opacity:1;" d="M 14.535156 0.804688 C 11.964844 0.804688 9.871094 2.898438 9.871094 5.46875 C 9.871094 8.039062 11.964844 10.132812 14.535156 10.132812 C 17.109375 10.132812 19.199219 8.039062 19.199219 5.46875 C 19.199219 2.898438 17.109375 0.804688 14.535156 0.804688 Z M 14.535156 0.804688 "/>
<path style=" stroke:none;fill-rule:nonzero;fill:rgb(10.980392%,60.392159%,83.92157%);fill-opacity:1;" d="M 4.9375 0 C 2.800781 0 1.066406 1.734375 1.066406 3.871094 C 1.066406 6.003906 2.800781 7.738281 4.9375 7.738281 C 7.070312 7.738281 8.804688 6.003906 8.804688 3.871094 C 8.804688 1.734375 7.070312 0 4.9375 0 Z M 4.9375 0 "/>
<path style=" stroke:none;fill-rule:nonzero;fill:rgb(10.980392%,60.392159%,83.92157%);fill-opacity:1;" d="M 4.800781 8 C 2.152344 8 0 10.152344 0 12.800781 L 0 19.734375 C 0 20.027344 0.238281 20.265625 0.535156 20.265625 L 9.066406 20.265625 C 9.359375 20.265625 9.601562 20.027344 9.601562 19.734375 L 9.601562 12.800781 C 9.601562 10.152344 7.445312 8 4.800781 8 Z M 4.800781 8 "/>
<path style=" stroke:none;fill-rule:nonzero;fill:rgb(10.980392%,45.490196%,73.333335%);fill-opacity:1;" d="M 2.667969 3.871094 C 2.667969 2.011719 3.984375 0.453125 5.734375 0.0820312 C 5.476562 0.0273438 5.210938 0 4.9375 0 C 2.800781 0 1.066406 1.734375 1.066406 3.871094 C 1.066406 6.003906 2.800781 7.738281 4.9375 7.738281 C 5.210938 7.738281 5.476562 7.710938 5.734375 7.65625 C 3.984375 7.285156 2.667969 5.726562 2.667969 3.871094 Z M 2.667969 3.871094 "/>
<path style=" stroke:none;fill-rule:nonzero;fill:rgb(10.980392%,45.490196%,73.333335%);fill-opacity:1;" d="M 1.601562 19.734375 L 1.601562 12.800781 C 1.601562 10.425781 3.332031 8.449219 5.601562 8.066406 C 5.339844 8.023438 5.074219 8 4.800781 8 C 2.152344 8 0 10.152344 0 12.800781 L 0 19.734375 C 0 20.027344 0.238281 20.265625 0.535156 20.265625 L 2.132812 20.265625 C 1.839844 20.265625 1.601562 20.027344 1.601562 19.734375 Z M 1.601562 19.734375 "/>
<path style=" stroke:none;fill-rule:nonzero;fill:rgb(10.980392%,60.392159%,83.92157%);fill-opacity:1;" d="M 20.21875 15.777344 C 20.039062 14.402344 19.382812 13.136719 18.347656 12.195312 C 17.265625 11.210938 15.863281 10.667969 14.398438 10.667969 C 12.933594 10.667969 11.53125 11.210938 10.449219 12.195312 C 9.417969 13.136719 8.757812 14.402344 8.582031 15.777344 C 8.550781 15.84375 8.535156 15.921875 8.535156 16 L 8.535156 25.601562 C 8.535156 25.894531 8.773438 26.132812 9.066406 26.132812 L 19.734375 26.132812 C 20.027344 26.132812 20.265625 25.894531 20.265625 25.601562 L 20.265625 16 C 20.265625 15.921875 20.25 15.84375 20.21875 15.777344 Z M 20.21875 15.777344 "/>
<path style=" stroke:none;fill-rule:nonzero;fill:rgb(10.980392%,45.490196%,73.333335%);fill-opacity:1;" d="M 11.472656 5.46875 C 11.472656 3.171875 13.144531 1.253906 15.335938 0.875 C 15.074219 0.828125 14.808594 0.804688 14.535156 0.804688 C 11.964844 0.804688 9.871094 2.898438 9.871094 5.46875 C 9.871094 8.039062 11.964844 10.132812 14.535156 10.132812 C 14.808594 10.132812 15.074219 10.109375 15.335938 10.0625 C 13.144531 9.683594 11.472656 7.769531 11.472656 5.46875 Z M 11.472656 5.46875 "/>
<path style=" stroke:none;fill-rule:nonzero;fill:rgb(10.980392%,45.490196%,73.333335%);fill-opacity:1;" d="M 10.132812 25.601562 L 10.132812 16 C 10.132812 15.921875 10.152344 15.84375 10.183594 15.777344 C 10.359375 14.402344 11.019531 13.136719 12.050781 12.195312 C 12.933594 11.390625 14.03125 10.882812 15.199219 10.722656 C 14.9375 10.683594 14.667969 10.667969 14.398438 10.667969 C 12.933594 10.667969 11.53125 11.210938 10.449219 12.195312 C 9.417969 13.136719 8.757812 14.402344 8.582031 15.777344 C 8.550781 15.84375 8.535156 15.921875 8.535156 16 L 8.535156 25.601562 C 8.535156 25.894531 8.773438 26.132812 9.066406 26.132812 L 10.667969 26.132812 C 10.371094 26.132812 10.132812 25.894531 10.132812 25.601562 Z M 10.132812 25.601562 "/>
<path style=" stroke:none;fill-rule:nonzero;fill:rgb(10.980392%,60.392159%,83.92157%);fill-opacity:1;" d="M 25.601562 12.800781 C 22.070312 12.800781 19.199219 15.671875 19.199219 19.199219 L 19.199219 31.464844 C 19.199219 31.761719 19.4375 32 19.734375 32 L 31.464844 32 C 31.761719 32 32 31.761719 32 31.464844 L 32 19.199219 C 32 15.671875 29.128906 12.800781 25.601562 12.800781 Z M 25.601562 12.800781 "/>
<path style=" stroke:none;fill-rule:nonzero;fill:rgb(10.980392%,45.490196%,73.333335%);fill-opacity:1;" d="M 21.867188 6.933594 C 21.867188 4.265625 23.835938 2.046875 26.398438 1.660156 C 26.140625 1.621094 25.871094 1.601562 25.601562 1.601562 C 22.660156 1.601562 20.265625 3.992188 20.265625 6.933594 C 20.265625 9.875 22.660156 12.265625 25.601562 12.265625 C 25.871094 12.265625 26.140625 12.246094 26.398438 12.207031 C 23.835938 11.820312 21.867188 9.601562 21.867188 6.933594 Z M 21.867188 6.933594 "/>
<path style=" stroke:none;fill-rule:nonzero;fill:rgb(10.980392%,45.490196%,73.333335%);fill-opacity:1;" d="M 20.800781 31.464844 L 20.800781 19.199219 C 20.800781 15.941406 23.246094 13.246094 26.398438 12.851562 C 26.136719 12.816406 25.871094 12.800781 25.601562 12.800781 C 22.070312 12.800781 19.199219 15.671875 19.199219 19.199219 L 19.199219 31.464844 C 19.199219 31.761719 19.4375 32 19.734375 32 L 21.332031 32 C 21.039062 32 20.800781 31.761719 20.800781 31.464844 Z M 20.800781 31.464844 "/>
</g>
</svg>
