<?xml version="1.0" encoding="UTF-8"?>
<svg xmlns="http://www.w3.org/2000/svg" xmlns:xlink="http://www.w3.org/1999/xlink" width="32px" height="32px" viewBox="0 0 32 32" version="1.1">
<g id="surface1">
<path style=" stroke:none;fill-rule:nonzero;fill:rgb(97.254902%,78.039217%,47.058824%);fill-opacity:1;" d="M 1.582031 16.59375 L 1.582031 31.023438 L 30.597656 31.023438 L 30.597656 16.539062 C 30.597656 16.539062 24.792969 12.53125 24.523438 12.496094 C 24.257812 12.457031 16.460938 5.320312 16.460938 5.320312 L 7.863281 12.253906 Z M 1.582031 16.59375 "/>
<path style=" stroke:none;fill-rule:nonzero;fill:rgb(96.078432%,69.01961%,24.705882%);fill-opacity:1;" d="M 1.582031 16.578125 L 8.433594 16.578125 L 8.425781 31.007812 L 9.5625 31.007812 L 9.570312 13.441406 L 16.289062 7.523438 L 23.070312 13.726562 L 23.050781 31.007812 L 24.117188 31.007812 L 24.136719 16.496094 L 30.597656 16.539062 L 30.597656 15.675781 L 24.703125 12.515625 L 16.816406 5.589844 L 8.113281 12.375 L 1.585938 15.753906 Z M 1.582031 16.578125 "/>
<path style=" stroke:none;fill-rule:nonzero;fill:rgb(65.098041%,15.294118%,7.843138%);fill-opacity:1;" d="M 3.273438 10.640625 C 3.230469 10.714844 1.488281 15.519531 1.453125 15.621094 C 1.421875 15.71875 1.503906 15.835938 1.703125 15.855469 C 1.90625 15.871094 8.800781 15.855469 8.800781 15.855469 L 8.78125 12.910156 C 8.78125 12.910156 16.1875 6.246094 16.269531 6.246094 C 16.351562 6.246094 23.816406 13.082031 23.832031 13.183594 C 23.851562 13.285156 23.863281 15.738281 23.863281 15.738281 C 23.863281 15.738281 30.425781 15.789062 30.5625 15.808594 C 30.699219 15.824219 30.730469 15.640625 30.613281 15.289062 C 30.496094 14.941406 29.125 10.714844 29.023438 10.648438 C 28.925781 10.578125 23.515625 10.578125 23.515625 10.578125 C 23.515625 10.578125 16.738281 4.339844 16.621094 4.238281 C 16.503906 4.140625 16.152344 3.988281 15.84375 4.296875 C 15.570312 4.570312 8.808594 10.628906 8.808594 10.628906 C 8.808594 10.628906 3.324219 10.558594 3.273438 10.640625 Z M 3.273438 10.640625 "/>
<path style=" stroke:none;fill-rule:nonzero;fill:rgb(81.176472%,38.039216%,31.37255%);fill-opacity:1;" d="M 10.976562 20.148438 L 10.976562 31.015625 L 21.566406 31.015625 L 21.566406 20.148438 C 21.566406 20.148438 10.976562 20.121094 10.976562 20.148438 Z M 10.976562 20.148438 "/>
<path style=" stroke:none;fill-rule:nonzero;fill:rgb(49.019608%,69.803923%,25.098041%);fill-opacity:1;" d="M 0.910156 31.0625 C 1.003906 31.203125 2.082031 31.136719 4.960938 31.152344 C 7.835938 31.167969 8.675781 31.164062 8.824219 31.132812 C 8.972656 31.101562 9.09375 30.453125 8.996094 29.890625 C 8.886719 29.273438 8.515625 28.691406 7.917969 28.503906 C 7.113281 28.253906 6.621094 28.484375 6.234375 28.351562 C 5.851562 28.21875 4.722656 27.652344 3.578125 27.726562 C 2.601562 27.789062 1.902344 28.078125 1.296875 28.972656 C 0.640625 29.933594 0.851562 30.972656 0.910156 31.0625 Z M 0.910156 31.0625 "/>
<path style=" stroke:none;fill-rule:nonzero;fill:rgb(49.019608%,69.803923%,25.098041%);fill-opacity:1;" d="M 31.523438 31.003906 C 31.671875 30.898438 31.65625 28.058594 29.683594 27.84375 C 28.199219 27.679688 27.8125 28.316406 27.5625 28.316406 C 27.308594 28.316406 26.351562 27.851562 25.023438 28.363281 C 23.378906 29 23.40625 30.855469 23.46875 31.03125 C 23.527344 31.210938 25.234375 31.164062 27.574219 31.179688 C 29.917969 31.195312 31.328125 31.136719 31.523438 31.003906 Z M 31.523438 31.003906 "/>
<path style=" stroke:none;fill-rule:nonzero;fill:rgb(24.313726%,45.09804%,48.627451%);fill-opacity:1;" d="M 2.890625 17.40625 L 7.566406 17.40625 L 7.566406 21.171875 L 2.828125 21.171875 C 2.828125 21.171875 2.859375 17.4375 2.890625 17.40625 Z M 2.890625 17.40625 "/>
<path style=" stroke:none;fill-rule:nonzero;fill:rgb(24.313726%,45.09804%,48.627451%);fill-opacity:1;" d="M 2.828125 22.925781 L 7.484375 22.925781 L 7.484375 26.566406 L 2.789062 26.566406 C 2.789062 26.570312 2.808594 22.90625 2.828125 22.925781 Z M 2.828125 22.925781 "/>
<path style=" stroke:none;fill-rule:nonzero;fill:rgb(65.490198%,81.568629%,84.313726%);fill-opacity:1;" d="M 3.601562 18.09375 L 6.773438 18.09375 L 6.773438 20.582031 L 3.558594 20.582031 C 3.558594 20.582031 3.539062 18.113281 3.601562 18.09375 Z M 3.601562 18.09375 "/>
<path style=" stroke:none;fill-rule:nonzero;fill:rgb(65.490198%,81.568629%,84.313726%);fill-opacity:1;" d="M 3.457031 23.535156 L 6.816406 23.535156 L 6.816406 25.941406 L 3.457031 25.941406 Z M 3.457031 23.535156 "/>
<path style=" stroke:none;fill-rule:nonzero;fill:rgb(24.313726%,45.09804%,48.627451%);fill-opacity:1;" d="M 24.917969 17.628906 L 29.570312 17.628906 L 29.570312 21.371094 L 24.898438 21.371094 C 24.898438 21.371094 24.917969 17.570312 24.917969 17.628906 Z M 24.917969 17.628906 "/>
<path style=" stroke:none;fill-rule:nonzero;fill:rgb(65.490198%,81.568629%,84.313726%);fill-opacity:1;" d="M 25.566406 18.277344 L 28.902344 18.277344 L 28.902344 20.703125 L 25.566406 20.703125 Z M 25.566406 18.277344 "/>
<path style=" stroke:none;fill-rule:nonzero;fill:rgb(24.313726%,45.09804%,48.627451%);fill-opacity:1;" d="M 24.859375 23.148438 L 29.488281 23.148438 L 29.488281 26.691406 L 24.859375 26.691406 C 24.859375 26.691406 24.828125 23.183594 24.859375 23.148438 Z M 24.859375 23.148438 "/>
<path style=" stroke:none;fill-rule:nonzero;fill:rgb(65.490198%,81.568629%,84.313726%);fill-opacity:1;" d="M 25.585938 23.796875 L 25.585938 25.984375 L 28.761719 25.984375 L 28.761719 23.777344 C 28.761719 23.777344 25.554688 23.765625 25.585938 23.796875 Z M 25.585938 23.796875 "/>
<path style=" stroke:none;fill-rule:nonzero;fill:rgb(24.313726%,45.09804%,48.627451%);fill-opacity:1;" d="M 12.515625 31.023438 L 12.511719 21.332031 L 20.136719 21.332031 L 20.136719 31.023438 Z M 12.515625 31.023438 "/>
<path style=" stroke:none;fill-rule:nonzero;fill:rgb(65.490198%,81.568629%,84.313726%);fill-opacity:1;" d="M 19.234375 23.308594 L 19.234375 22.035156 L 13.453125 22.035156 L 13.453125 23.308594 Z M 19.234375 23.308594 "/>
<path style=" stroke:none;fill-rule:nonzero;fill:rgb(65.490198%,81.568629%,84.313726%);fill-opacity:1;" d="M 13.453125 23.949219 L 19.234375 23.949219 L 19.234375 27.265625 L 13.453125 27.265625 Z M 13.453125 23.949219 "/>
<path style=" stroke:none;fill-rule:nonzero;fill:rgb(65.490198%,81.568629%,84.313726%);fill-opacity:1;" d="M 13.453125 27.949219 L 19.234375 27.949219 L 19.234375 29.683594 L 13.453125 29.683594 Z M 13.453125 27.949219 "/>
<path style=" stroke:none;fill-rule:nonzero;fill:rgb(24.313726%,45.09804%,48.627451%);fill-opacity:1;" d="M 16.070312 23.664062 L 16.070312 30.191406 L 16.730469 30.191406 L 16.730469 23.59375 C 16.730469 23.59375 16.113281 23.664062 16.070312 23.664062 Z M 16.070312 23.664062 "/>
<path style=" stroke:none;fill-rule:nonzero;fill:rgb(24.313726%,45.09804%,48.627451%);fill-opacity:1;" d="M 16.113281 10.015625 C 13.523438 10.039062 11.785156 11.96875 11.917969 14.453125 C 12.046875 16.871094 13.960938 18.386719 16.179688 18.324219 C 18.511719 18.257812 20.179688 16.386719 20.246094 14.171875 C 20.308594 11.953125 18.511719 9.996094 16.113281 10.015625 Z M 16.113281 10.015625 "/>
<path style=" stroke:none;fill-rule:nonzero;fill:rgb(100%,100%,100%);fill-opacity:1;" d="M 16.050781 10.761719 C 13.941406 10.761719 12.53125 12.367188 12.621094 14.300781 C 12.707031 16.164062 13.960938 17.574219 16.117188 17.574219 C 18.09375 17.574219 19.394531 15.949219 19.433594 14.277344 C 19.476562 12.453125 18.113281 10.761719 16.050781 10.761719 Z M 16.050781 10.761719 "/>
<path style=" stroke:none;fill-rule:nonzero;fill:rgb(18.431373%,18.431373%,18.431373%);fill-opacity:1;" d="M 15.433594 14.363281 C 15.433594 14.363281 14.210938 15.394531 14.140625 15.515625 C 14.074219 15.636719 14.078125 15.832031 14.238281 15.964844 C 14.40625 16.097656 14.566406 16.019531 14.667969 15.941406 C 14.765625 15.863281 16.058594 14.804688 16.058594 14.804688 C 16.058594 14.804688 16.476562 14.796875 16.574219 14.300781 C 16.648438 13.90625 16.363281 13.722656 16.363281 13.722656 C 16.363281 13.722656 16.320312 11.359375 16.300781 11.183594 C 16.28125 11.050781 16.148438 10.929688 16.027344 10.941406 C 15.90625 10.953125 15.789062 11.019531 15.773438 11.214844 C 15.761719 11.410156 15.75 13.675781 15.75 13.675781 C 15.75 13.675781 15.574219 13.738281 15.476562 13.925781 C 15.378906 14.113281 15.433594 14.363281 15.433594 14.363281 Z M 15.433594 14.363281 "/>
</g>
</svg>
