<?xml version="1.0" encoding="UTF-8"?>
<svg xmlns="http://www.w3.org/2000/svg" xmlns:xlink="http://www.w3.org/1999/xlink" width="32px" height="32px" viewBox="0 0 32 32" version="1.1">
<g id="surface1">
<path style=" stroke:none;fill-rule:nonzero;fill:rgb(100%,85.882354%,17.647059%);fill-opacity:1;" d="M 21.285156 29.730469 L 1.117188 29.730469 C 0.5 29.730469 0 29.230469 0 28.613281 L 0 3.386719 C 0 2.769531 0.5 2.269531 1.117188 2.269531 L 21.285156 2.269531 C 21.898438 2.269531 22.398438 2.769531 22.398438 3.386719 L 22.398438 28.613281 C 22.398438 29.230469 21.898438 29.730469 21.285156 29.730469 Z M 21.285156 29.730469 "/>
<path style=" stroke:none;fill-rule:nonzero;fill:rgb(100%,60.000002%,0%);fill-opacity:1;" d="M 21.285156 2.269531 L 11.199219 2.269531 L 11.199219 29.730469 L 21.285156 29.730469 C 21.898438 29.730469 22.398438 29.230469 22.398438 28.613281 L 22.398438 3.386719 C 22.398438 2.769531 21.898438 2.269531 21.285156 2.269531 Z M 21.285156 2.269531 "/>
<path style=" stroke:none;fill-rule:nonzero;fill:rgb(100%,60.000002%,0%);fill-opacity:1;" d="M 14.101562 11.347656 L 8.328125 11.347656 C 7.753906 11.347656 7.25 10.929688 7.1875 10.359375 C 7.113281 9.6875 7.640625 9.117188 8.296875 9.117188 L 14.074219 9.117188 C 14.644531 9.117188 15.148438 9.535156 15.210938 10.105469 C 15.285156 10.777344 14.761719 11.347656 14.101562 11.347656 Z M 14.101562 11.347656 "/>
<path style=" stroke:none;fill-rule:nonzero;fill:rgb(100%,60.000002%,0%);fill-opacity:1;" d="M 16.632812 17.152344 L 5.796875 17.152344 C 5.222656 17.152344 4.722656 16.734375 4.65625 16.164062 C 4.582031 15.492188 5.109375 14.921875 5.765625 14.921875 L 16.601562 14.921875 C 17.175781 14.921875 17.679688 15.339844 17.742188 15.910156 C 17.816406 16.582031 17.289062 17.152344 16.632812 17.152344 Z M 16.632812 17.152344 "/>
<path style=" stroke:none;fill-rule:nonzero;fill:rgb(100%,60.000002%,0%);fill-opacity:1;" d="M 16.632812 22.957031 L 5.796875 22.957031 C 5.222656 22.957031 4.722656 22.539062 4.65625 21.96875 C 4.582031 21.296875 5.109375 20.726562 5.765625 20.726562 L 16.601562 20.726562 C 17.175781 20.726562 17.679688 21.144531 17.742188 21.714844 C 17.816406 22.386719 17.289062 22.957031 16.632812 22.957031 Z M 16.632812 22.957031 "/>
<path style=" stroke:none;fill-rule:nonzero;fill:rgb(100%,30.980393%,9.803922%);fill-opacity:1;" d="M 15.210938 10.105469 C 15.148438 9.535156 14.644531 9.117188 14.074219 9.117188 L 11.199219 9.117188 L 11.199219 11.347656 L 14.101562 11.347656 C 14.761719 11.347656 15.285156 10.777344 15.210938 10.105469 Z M 15.210938 10.105469 "/>
<path style=" stroke:none;fill-rule:nonzero;fill:rgb(100%,30.980393%,9.803922%);fill-opacity:1;" d="M 17.742188 15.910156 C 17.679688 15.339844 17.175781 14.921875 16.601562 14.921875 L 11.199219 14.921875 L 11.199219 17.152344 L 16.632812 17.152344 C 17.289062 17.152344 17.816406 16.582031 17.742188 15.910156 Z M 17.742188 15.910156 "/>
<path style=" stroke:none;fill-rule:nonzero;fill:rgb(100%,30.980393%,9.803922%);fill-opacity:1;" d="M 17.742188 21.714844 C 17.679688 21.144531 17.175781 20.726562 16.601562 20.726562 L 11.199219 20.726562 L 11.199219 22.957031 L 16.632812 22.957031 C 17.289062 22.957031 17.816406 22.386719 17.742188 21.714844 Z M 17.742188 21.714844 "/>
<path style=" stroke:none;fill-rule:nonzero;fill:rgb(72.549021%,96.862745%,97.647059%);fill-opacity:1;" d="M 27.515625 28.433594 L 25.25 22.882812 C 25.140625 22.710938 25.078125 22.507812 25.078125 22.289062 L 25.078125 3.386719 C 25.078125 2.769531 25.578125 2.269531 26.195312 2.269531 L 30.882812 2.269531 C 31.5 2.269531 32 2.769531 32 3.386719 L 32 22.289062 C 32 22.433594 31.972656 22.578125 31.917969 22.710938 L 29.582031 28.433594 C 29.207031 29.355469 27.890625 29.359375 27.515625 28.433594 Z M 27.515625 28.433594 "/>
<path style=" stroke:none;fill-rule:nonzero;fill:rgb(0%,84.705883%,87.843138%);fill-opacity:1;" d="M 30.882812 2.269531 L 28.503906 2.269531 L 28.503906 29.125 C 28.933594 29.128906 29.363281 28.898438 29.554688 28.433594 L 31.917969 22.710938 C 31.972656 22.578125 32 22.433594 32 22.289062 L 32 3.386719 C 32 2.769531 31.5 2.269531 30.882812 2.269531 Z M 30.882812 2.269531 "/>
<path style=" stroke:none;fill-rule:nonzero;fill:rgb(0%,84.705883%,87.843138%);fill-opacity:1;" d="M 25.078125 6.140625 L 32 6.140625 L 32 8.371094 L 25.078125 8.371094 Z M 25.078125 6.140625 "/>
<path style=" stroke:none;fill-rule:nonzero;fill:rgb(0%,84.705883%,87.843138%);fill-opacity:1;" d="M 25.078125 21.171875 L 25.078125 22.289062 C 25.078125 22.507812 25.140625 22.710938 25.25 22.882812 L 25.464844 23.40625 L 31.632812 23.40625 L 31.917969 22.710938 C 31.972656 22.574219 32 22.433594 32 22.289062 L 32 21.171875 Z M 25.078125 21.171875 "/>
<path style=" stroke:none;fill-rule:nonzero;fill:rgb(0%,63.529414%,66.274512%);fill-opacity:1;" d="M 28.503906 6.140625 L 32 6.140625 L 32 8.371094 L 28.503906 8.371094 Z M 28.503906 6.140625 "/>
<path style=" stroke:none;fill-rule:nonzero;fill:rgb(0%,63.529414%,66.274512%);fill-opacity:1;" d="M 28.503906 21.171875 L 28.503906 23.40625 L 31.628906 23.40625 L 31.914062 22.710938 C 31.972656 22.578125 32 22.433594 32 22.285156 L 32 21.171875 Z M 28.503906 21.171875 "/>
</g>
</svg>
