<?xml version="1.0" encoding="UTF-8"?>
<svg xmlns="http://www.w3.org/2000/svg" xmlns:xlink="http://www.w3.org/1999/xlink" width="32px" height="32px" viewBox="0 0 32 32" version="1.1">
<defs>
<filter id="alpha" filterUnits="objectBoundingBox" x="0%" y="0%" width="100%" height="100%">
  <feColorMatrix type="matrix" in="SourceGraphic" values="0 0 0 0 1 0 0 0 0 1 0 0 0 0 1 0 0 0 1 0"/>
</filter>
<mask id="mask0">
  <g filter="url(#alpha)">
<rect x="0" y="0" width="32" height="32" style="fill:rgb(0%,0%,0%);fill-opacity:0.109804;stroke:none;"/>
  </g>
</mask>
<clipPath id="clip1">
  <rect x="0" y="0" width="32" height="32"/>
</clipPath>
<g id="surface5" clip-path="url(#clip1)">
<path style=" stroke:none;fill-rule:evenodd;fill:rgb(0%,0%,0%);fill-opacity:1;" d="M 20.167969 19.996094 L 20.167969 22.070312 C 20.167969 22.261719 20.152344 22.453125 20.121094 22.644531 C 20.082031 22.878906 20.015625 23.109375 19.925781 23.328125 C 17.238281 25.355469 12.960938 23.691406 12.28125 20.230469 Z M 20.167969 19.996094 "/>
</g>
</defs>
<g id="surface1">
<path style=" stroke:none;fill-rule:nonzero;fill:rgb(100%,76.078433%,0%);fill-opacity:1;" d="M 32 16 C 32 7.164062 24.835938 0 16 0 C 7.164062 0 0 7.164062 0 16 C 0 24.835938 7.164062 32 16 32 C 24.835938 32 32 24.835938 32 16 Z M 32 16 "/>
<path style=" stroke:none;fill-rule:evenodd;fill:rgb(40.392157%,43.921569%,47.450981%);fill-opacity:1;" d="M 27.230469 27.394531 C 20.941406 33.59375 10.824219 33.527344 4.617188 27.246094 C 5 26.191406 5.738281 25.304688 6.710938 24.742188 C 7.363281 24.261719 8.070312 23.855469 8.820312 23.539062 C 7.679688 19.628906 10.773438 17.707031 11.957031 17.152344 C 11.957031 18.960938 13.648438 17.761719 15.746094 17.785156 C 17.476562 17.804688 20.890625 19.542969 20.890625 17.246094 C 22.789062 17.808594 24.863281 21.433594 23.4375 23.65625 C 24.019531 23.941406 24.574219 24.289062 25.082031 24.695312 C 26.082031 25.328125 26.835938 26.28125 27.230469 27.394531 Z M 27.230469 27.394531 "/>
<path style=" stroke:none;fill-rule:evenodd;fill:rgb(97.647059%,86.274511%,64.313728%);fill-opacity:1;" d="M 12.445312 20.027344 L 20.167969 20.074219 L 20.167969 21.855469 L 20.164062 21.882812 C 20.160156 21.960938 20.148438 22.042969 20.128906 22.121094 L 20.105469 22.296875 L 20.089844 22.335938 C 19.589844 24.960938 17.398438 25.976562 16.046875 26.683594 C 14.625 25.910156 12.609375 24.511719 12.449219 22.039062 L 12.445312 22.007812 L 12.445312 21.90625 C 12.441406 21.871094 12.441406 21.832031 12.441406 21.796875 C 12.441406 21.816406 12.441406 21.835938 12.445312 21.851562 Z M 12.445312 20.027344 "/>
<use xlink:href="#surface5" mask="url(#mask0)"/>
<path style=" stroke:none;fill-rule:evenodd;fill:rgb(97.647059%,86.274511%,64.313728%);fill-opacity:1;" d="M 9.375 13.066406 C 6.816406 13.722656 8.992188 16.839844 10.601562 16.828125 C 9.949219 15.664062 9.535156 14.386719 9.375 13.066406 Z M 9.375 13.066406 "/>
<path style=" stroke:none;fill-rule:evenodd;fill:rgb(97.647059%,86.274511%,64.313728%);fill-opacity:1;" d="M 22.699219 13.066406 C 25.257812 13.722656 23.082031 16.839844 21.472656 16.828125 C 22.121094 15.664062 22.539062 14.386719 22.699219 13.066406 Z M 22.699219 13.066406 "/>
<path style=" stroke:none;fill-rule:evenodd;fill:rgb(100%,90.980393%,74.509805%);fill-opacity:1;" d="M 15.914062 5.882812 C 26.539062 5.882812 22.398438 22.683594 15.914062 22.683594 C 9.789062 22.683594 5.285156 5.882812 15.914062 5.882812 Z M 15.914062 5.882812 "/>
<path style=" stroke:none;fill-rule:evenodd;fill:rgb(54.11765%,36.078432%,25.882354%);fill-opacity:1;" d="M 10.898438 11.445312 C 11.082031 11.648438 11.164062 11.921875 11.121094 12.191406 C 11.082031 12.460938 10.917969 12.695312 10.683594 12.832031 C 9.933594 13.449219 9.90625 15.601562 9.90625 15.601562 C 9.617188 15.316406 9.621094 13.773438 8.992188 12.882812 C 8.363281 11.992188 7.941406 5.757812 11.457031 3.488281 C 11.019531 4.003906 10.839844 4.691406 10.972656 5.351562 C 10.972656 5.351562 13.414062 1.851562 17.46875 1.953125 C 16.816406 2.304688 16.347656 2.917969 16.179688 3.640625 C 16.179688 3.640625 19.722656 2.179688 22.671875 3.917969 C 21.90625 4.128906 21.179688 4.46875 20.527344 4.925781 C 21.960938 4.964844 23.34375 5.230469 24.390625 6.160156 C 23.933594 6.304688 23.558594 6.628906 23.347656 7.054688 C 23.132812 7.484375 23.105469 7.976562 23.261719 8.425781 C 23.707031 10.242188 23.746094 11.929688 23.316406 12.835938 C 22.886719 13.742188 22.6875 13.15625 22.417969 15.058594 C 22.390625 15.320312 22.242188 15.554688 22.019531 15.6875 C 22.007812 15.824219 22.214844 13.742188 21.679688 13.1875 C 21.144531 12.636719 21.480469 11.953125 21.695312 11.550781 C 23.191406 8.742188 18.710938 7.46875 16.257812 7.472656 C 14.136719 7.472656 9.011719 8.4375 10.898438 11.445312 Z M 10.898438 11.445312 "/>
<path style=" stroke:none;fill-rule:evenodd;fill:rgb(26.274511%,28.627452%,33.333334%);fill-opacity:1;" d="M 10.246094 25.457031 C 10.261719 25.476562 15.640625 32.4375 21.964844 25.351562 C 21.203125 27.449219 17.90625 29.117188 16.023438 29.113281 C 12.425781 29.101562 10.433594 26.210938 10.246094 25.457031 Z M 10.246094 25.457031 "/>
<path style=" stroke:none;fill-rule:evenodd;fill:rgb(90.196079%,90.196079%,90.196079%);fill-opacity:1;" d="M 18.816406 31.753906 C 18.601562 31.789062 18.390625 31.824219 18.175781 31.851562 L 18.175781 27.226562 C 18.191406 27.0625 18.332031 26.945312 18.496094 26.957031 C 18.65625 26.945312 18.796875 27.0625 18.816406 27.226562 Z M 13.730469 31.839844 C 13.515625 31.808594 13.300781 31.773438 13.089844 31.734375 L 13.089844 27.226562 C 13.105469 27.0625 13.246094 26.945312 13.410156 26.957031 C 13.570312 26.945312 13.714844 27.0625 13.730469 27.226562 Z M 13.730469 31.839844 "/>
</g>
</svg>
