<?xml version="1.0" encoding="UTF-8"?>
<svg xmlns="http://www.w3.org/2000/svg" xmlns:xlink="http://www.w3.org/1999/xlink" width="32px" height="32px" viewBox="0 0 32 32" version="1.1">
<g id="surface1">
<path style=" stroke:none;fill-rule:nonzero;fill:rgb(100%,81.960785%,33.333334%);fill-opacity:1;" d="M 15.34375 31.789062 C 3.507812 23.550781 3.800781 22.105469 1.503906 9.164062 C 1.425781 8.707031 1.636719 8.242188 2.039062 8.007812 L 15.410156 0.167969 C 15.769531 -0.0546875 16.226562 -0.0546875 16.585938 0.167969 L 29.960938 8.007812 C 30.363281 8.242188 30.574219 8.707031 30.496094 9.164062 C 28.199219 22.089844 28.496094 23.550781 16.644531 31.792969 C 16.257812 32.070312 15.734375 32.070312 15.34375 31.789062 Z M 15.34375 31.789062 "/>
<path style=" stroke:none;fill-rule:nonzero;fill:rgb(100%,74.509805%,0%);fill-opacity:1;" d="M 29.960938 8.007812 L 16.585938 0.167969 C 16.40625 0.0546875 16.203125 0 16 0 L 16 32 C 16.226562 32 16.453125 31.929688 16.644531 31.792969 C 28.496094 23.550781 28.199219 22.089844 30.496094 9.164062 C 30.574219 8.707031 30.363281 8.242188 29.960938 8.007812 Z M 29.960938 8.007812 "/>
<path style=" stroke:none;fill-rule:nonzero;fill:rgb(100%,89.411765%,61.176473%);fill-opacity:1;" d="M 15.363281 26.359375 C 7.828125 21.117188 7.730469 18.675781 6.445312 11.445312 C 6.363281 10.984375 6.578125 10.523438 6.980469 10.289062 L 15.433594 5.328125 C 15.785156 5.125 16.214844 5.125 16.566406 5.328125 L 25.019531 10.289062 C 25.421875 10.523438 25.636719 10.984375 25.554688 11.445312 C 24.277344 18.640625 24.179688 21.113281 16.636719 26.359375 C 16.253906 26.625 15.746094 26.625 15.363281 26.359375 Z M 15.363281 26.359375 "/>
<path style=" stroke:none;fill-rule:nonzero;fill:rgb(100%,81.960785%,33.333334%);fill-opacity:1;" d="M 25.019531 10.289062 L 16.566406 5.328125 C 16.390625 5.226562 16.195312 5.175781 16 5.175781 L 16 26.558594 C 16.222656 26.558594 16.445312 26.492188 16.636719 26.359375 C 24.179688 21.113281 24.277344 18.640625 25.554688 11.445312 C 25.636719 10.984375 25.421875 10.523438 25.019531 10.289062 Z M 25.019531 10.289062 "/>
<path style=" stroke:none;fill-rule:nonzero;fill:rgb(100%,81.960785%,33.333334%);fill-opacity:1;" d="M 16 19.644531 C 13.703125 19.644531 11.832031 17.777344 11.832031 15.480469 C 11.832031 13.183594 13.703125 11.3125 16 11.3125 C 18.296875 11.3125 20.167969 13.183594 20.167969 15.480469 C 20.167969 17.777344 18.296875 19.644531 16 19.644531 Z M 16 19.644531 "/>
<path style=" stroke:none;fill-rule:nonzero;fill:rgb(100%,74.509805%,0%);fill-opacity:1;" d="M 16 11.3125 L 16 19.644531 C 18.296875 19.644531 20.167969 17.777344 20.167969 15.480469 C 20.167969 13.183594 18.296875 11.3125 16 11.3125 Z M 16 11.3125 "/>
</g>
</svg>
